<svg width="21" height="35" viewBox="0 0 21 35" fill="none" xmlns="http://www.w3.org/2000/svg">
<path d="M19.8146 15.1628L5.85792 1.20609C5.55192 0.897568 5.18786 0.652687 4.78674 0.485573C4.38562 0.318459 3.95538 0.232422 3.52084 0.232422C3.0863 0.232422 2.65606 0.318459 2.25494 0.485573C1.85382 0.652687 1.48976 0.897568 1.18375 1.20609C0.570678 1.82283 0.226562 2.6571 0.226562 3.52672C0.226562 4.39633 0.570678 5.23061 1.18375 5.84734L12.8363 17.4998L1.18375 29.1523C0.570678 29.7691 0.226562 30.6034 0.226562 31.473C0.226563 32.3426 0.570678 33.1769 1.18375 33.7936C1.49133 34.0987 1.8561 34.34 2.25715 34.5038C2.65819 34.6676 3.08763 34.7507 3.52084 34.7482C3.95404 34.7507 4.38348 34.6676 4.78453 34.5038C5.18558 34.34 5.55035 34.0987 5.85792 33.7936L19.8146 19.8369C20.1231 19.5309 20.368 19.1669 20.5351 18.7657C20.7022 18.3646 20.7883 17.9344 20.7883 17.4998C20.7883 17.0653 20.7022 16.6351 20.5351 16.2339C20.368 15.8328 20.1231 15.4688 19.8146 15.1628Z" fill="white"/>
</svg>
