<svg width="21" height="35" viewBox="0 0 21 35" fill="none" xmlns="http://www.w3.org/2000/svg">
<path d="M8.16294 17.4998L19.8154 5.84734C20.4285 5.23061 20.7726 4.39633 20.7726 3.52672C20.7726 2.6571 20.4285 1.82283 19.8154 1.20609C19.5094 0.897569 19.1454 0.652687 18.7443 0.485573C18.3431 0.318459 17.9129 0.232422 17.4784 0.232422C17.0438 0.232422 16.6136 0.318459 16.2125 0.485573C15.8113 0.652687 15.4473 0.897569 15.1413 1.20609L1.18461 15.1628C0.876084 15.4688 0.631204 15.8328 0.46409 16.2339C0.296977 16.6351 0.210938 17.0653 0.210938 17.4998C0.210938 17.9344 0.296977 18.3646 0.46409 18.7657C0.631204 19.1669 0.876084 19.5309 1.18461 19.8369L15.1413 33.9582C15.4488 34.2633 15.8136 34.5046 16.2147 34.6684C16.6157 34.8322 17.0452 34.9153 17.4784 34.9128C17.9116 34.9153 18.341 34.8322 18.7421 34.6684C19.1431 34.5046 19.5079 34.2633 19.8154 33.9582C20.4285 33.3414 20.7726 32.5072 20.7726 31.6376C20.7726 30.7679 20.4285 29.9337 19.8154 29.3169L8.16294 17.4998Z" fill="white"/>
</svg>
