<svg width="35" height="21" viewBox="0 0 35 21" fill="none" xmlns="http://www.w3.org/2000/svg">
<path d="M33.9582 15.1413L19.8369 1.18461C19.5309 0.876084 19.1669 0.631204 18.7657 0.46409C18.3646 0.296977 17.9344 0.210938 17.4998 0.210938C17.0653 0.210938 16.6351 0.296977 16.2339 0.46409C15.8328 0.631204 15.4688 0.876084 15.1628 1.18461L1.20609 15.1413C0.897569 15.4473 0.652687 15.8113 0.485573 16.2125C0.318459 16.6136 0.232422 17.0438 0.232422 17.4784C0.232422 17.9129 0.318459 18.3431 0.485573 18.7443C0.652687 19.1454 0.897569 19.5094 1.20609 19.8154C1.82283 20.4285 2.6571 20.7726 3.52672 20.7726C4.39633 20.7726 5.23061 20.4285 5.84734 19.8154L17.4998 8.16294L29.1523 19.8154C29.7654 20.4236 30.593 20.7664 31.4565 20.77C31.8897 20.7725 32.3192 20.6895 32.7202 20.5257C33.1213 20.3619 33.486 20.1205 33.7936 19.8154C34.1131 19.5205 34.371 19.1651 34.5524 18.7698C34.7338 18.3746 34.8351 17.9473 34.8504 17.5127C34.8657 17.0781 34.7947 16.6447 34.6416 16.2377C34.4885 15.8307 34.2562 15.458 33.9582 15.1413Z" fill="white"/>
</svg>
