<svg width="16" height="18" viewBox="0 0 16 18" fill="none" xmlns="http://www.w3.org/2000/svg">
<path d="M14.6659 7.66626H4.54588L8.94588 3.2796C9.19695 3.02852 9.338 2.688 9.338 2.33293C9.338 1.97786 9.19695 1.63733 8.94588 1.38626C8.69481 1.13519 8.35428 0.994141 7.99921 0.994141C7.64414 0.994141 7.30362 1.13519 7.05254 1.38626L0.385877 8.05293C0.26449 8.17973 0.169337 8.32926 0.105877 8.49293C-0.02748 8.81754 -0.02748 9.18165 0.105877 9.50626C0.169337 9.66993 0.26449 9.81946 0.385877 9.94626L7.05254 16.6129C7.1765 16.7379 7.32396 16.8371 7.48644 16.9048C7.64892 16.9725 7.8232 17.0073 7.99921 17.0073C8.17523 17.0073 8.3495 16.9725 8.51198 16.9048C8.67446 16.8371 8.82193 16.7379 8.94588 16.6129C9.07085 16.489 9.17004 16.3415 9.23773 16.179C9.30542 16.0166 9.34028 15.8423 9.34028 15.6663C9.34028 15.4902 9.30542 15.316 9.23773 15.1535C9.17004 14.991 9.07085 14.8435 8.94588 14.7196L4.54588 10.3329H14.6659C15.0195 10.3329 15.3586 10.1925 15.6087 9.9424C15.8587 9.69236 15.9992 9.35322 15.9992 8.9996C15.9992 8.64597 15.8587 8.30684 15.6087 8.05679C15.3586 7.80674 15.0195 7.66626 14.6659 7.66626Z" fill="white"/>
</svg>
